# xmcd
# Copyright (C) 1995-1998 Ti Kan
#
# Track frame offsets:
#       150
#       95139
#       170491
#
# Disc length: 2540 seconds
#
# Revision: 0
# Processed by: cddbd v1.5.2PL0 Copyright (c) Steve Scherf et al.
# Submitted via: CD-Transfer v1.0
#
DISCID=2109ea03
DTITLE=Nour Eddine Benatia - 
DYEAR=1900
DGENRE=
TTITLE0=01- Ouelfi Rosa
TTITLE1=02- Ouelfi Khedoudj
TTITLE2=03- Soltanete Leriam
EXTD=
EXTT0=
EXTT1=
EXTT2=
PLAYORDER=
